<?xml version="1.0" encoding="utf-8"?>
<!-- Generator: Adobe Illustrator 26.4.1, SVG Export Plug-In . SVG Version: 6.00 Build 0)  -->
<svg version="1.1" id="레이어_1" xmlns="http://www.w3.org/2000/svg" xmlns:xlink="http://www.w3.org/1999/xlink" x="0px"
	 y="0px" viewBox="0 0 512 512" style="enable-background:new 0 0 512 512;" xml:space="preserve">
<style type="text/css">
	.st0{display:none;}
	.st1{display:inline;}
	.st2{fill:none;stroke:#FFFFFF;stroke-width:52;stroke-linecap:round;stroke-linejoin:round;stroke-miterlimit:10;}
</style>
<g id="레이어_1_00000022534147415939076880000003024730413319659961_" class="st0">
	<g class="st1">
		<path d="M326,256h-2v0.1L326,256L326,256L326,256z M322,256h-2v0.1L322,256L322,256L322,256z M318,256h-2v0.1L318,256L318,256
			L318,256z M314,256h-2v0.1L314,256L314,256L314,256z M310,256h-2v0.1L310,256L310,256L310,256z M306,256h-2v0.1L306,256L306,256
			L306,256z M302,256h-2v0.1L302,256L302,256L302,256z M298,256h-2v0.1L298,256L298,256L298,256z M294,256h-2v0.1L294,256L294,256
			L294,256z M290,256h-2v0.1L290,256L290,256L290,256z M286,256h-2v0.1L286,256L286,256L286,256z M282,256h-2v0.1L282,256L282,256
			L282,256z M278,256h-2v0.1L278,256L278,256L278,256z M274,256h-2v0.1L274,256L274,256L274,256z M270,256h-2v0.1L270,256L270,256
			L270,256z M266,256h-2v0.1L266,256L266,256L266,256z M262,256h-2v0.1L262,256L262,256L262,256z M258,256h-2v0.1L258,256L258,256
			L258,256z M256.1,258L256.1,258l-0.1,2h0.1V258L256.1,258z M256.1,262L256.1,262l-0.1,2h0.1V262L256.1,262z M256.1,266L256.1,266
			l-0.1,2h0.1V266L256.1,266z M256.1,270L256.1,270l-0.1,2h0.1V270L256.1,270z M256.1,274L256.1,274l-0.1,2h0.1V274L256.1,274z
			 M256.1,278L256.1,278l-0.1,2h0.1V278L256.1,278z M256.1,282L256.1,282l-0.1,2h0.1V282L256.1,282z M256.1,286L256.1,286
			c-0.1,0-0.1,2-0.1,2h0.1V286L256.1,286L256.1,286z M256.1,290L256.1,290l-0.1,2h0.1V290L256.1,290z M256.1,294L256.1,294l-0.1,2
			h0.1V294L256.1,294z M256.1,298L256.1,298l-0.1,2h0.1V298L256.1,298z M256.1,302L256.1,302l-0.1,2h0.1V302L256.1,302z M256.1,306
			L256.1,306l-0.1,2h0.1V306L256.1,306z M256.1,310L256.1,310l-0.1,2h0.1V310L256.1,310z M256.1,314L256.1,314l-0.1,2h0.1V314
			L256.1,314z M256.1,318L256.1,318l-0.1,2h0.1V318L256.1,318z M256.1,322L256.1,322l-0.1,2h0.1V322L256.1,322z M258,325.9h-2v0.1h2
			V325.9L258,325.9z M262,325.9h-2v0.1h2V325.9L262,325.9z M266,325.9h-2v0.1h2V325.9L266,325.9z M270,325.9h-2v0.1h2V325.9
			L270,325.9z M274,325.9h-2v0.1h2V325.9L274,325.9z M278,325.9h-2v0.1h2V325.9L278,325.9z M282,325.9h-2v0.1h2V325.9L282,325.9z
			 M286,325.9h-2v0.1h2V325.9L286,325.9z M290,325.9h-2v0.1h2V325.9L290,325.9z M294,325.9h-2v0.1h2V325.9L294,325.9z M298,325.9h-2
			v0.1h2V325.9L298,325.9z M302,325.9h-2v0.1h2V325.9L302,325.9z M306,325.9h-2v0.1h2V325.9L306,325.9z M310,325.9h-2v0.1h2V325.9
			L310,325.9z M314,325.9h-2v0.1h2V325.9L314,325.9z M318,325.9h-2v0.1h2V325.9L318,325.9z M322,325.9h-2v0.1h2V325.9L322,325.9z
			 M326,325.9h-2v0.1h2V325.9L326,325.9z M326,322h-0.1v2h0.1V322L326,322z M326,318h-0.1v2h0.1V318L326,318z M326,314h-0.1v2h0.1
			V314L326,314z M326,310h-0.1v2h0.1V310L326,310z M326,306h-0.1v2h0.1V306L326,306z M326,302h-0.1v2h0.1V302L326,302z M326,298
			h-0.1v2h0.1V298L326,298z M326,294h-0.1v2h0.1V294L326,294z M326,290h-0.1v2h0.1V290L326,290z M326,286h-0.1v2h0.1V286L326,286z
			 M326,282h-0.1v2h0.1V282L326,282z M326,278h-0.1v2h0.1V278L326,278z M326,274h-0.1v2h0.1V274L326,274z M326,270h-0.1v2h0.1V270
			L326,270z M326,266h-0.1v2h0.1V266L326,266z M326,262h-0.1v2h0.1V262L326,262z M326,258h-0.1v2h0.1V258L326,258z"/>
	</g>
</g>
<g id="레이어_6">
</g>
<g id="레이어_10">
</g>
<g id="레이어_11">
</g>
<g id="레이어_9">
</g>
<g id="레이어_14">
	<path class="st2" d="M46,318.4c8.8-122.3,101.1-217.2,210-217.2s201.2,94.9,210,217.2l-2.6,1.5c-17.5,15-41.3,32.5-70.7,49
		c-41.8,22.7-81,35.1-110.4,41.8l-2.6-3.1V174l-92.9,103.2"/>
</g>
<g id="레이어_7">
</g>
</svg>
